<svg width="1024" height="371" viewBox="0 0 1024 371" fill="none" xmlns="http://www.w3.org/2000/svg">
<path d="M1000.27 369.298H975.967L975.855 356.476H997.596C998.637 356.476 999.157 355.956 999.157 354.915V349.341C999.157 348.3 998.637 347.78 997.596 347.78H991.464C985.369 347.78 981.058 346.665 978.531 344.435C976.004 342.131 974.74 338.192 974.74 332.617V329.607C974.74 323.735 976.078 319.572 978.754 317.12C981.504 314.593 985.927 313.366 992.021 313.44L1011.42 313.552V326.931L992.244 326.819C991.204 326.819 990.684 327.34 990.684 328.38V333.732C990.684 334.772 991.204 335.293 992.244 335.293H998.042C1004.21 335.293 1008.52 336.408 1010.98 338.638C1013.5 340.867 1014.77 344.77 1014.77 350.344V355.361C1014.77 360.341 1013.61 363.909 1011.31 366.064C1009.01 368.22 1005.33 369.298 1000.27 369.298Z" fill="black"/>
<path d="M965.268 369.186H949.437V293.929H965.268V369.186Z" fill="black"/>
<path d="M912.174 370.301H910.502C905.522 370.301 901.842 369.224 899.464 367.068C897.16 364.913 896.008 361.345 896.008 356.365V351.013C896.008 345.439 897.271 341.536 899.799 339.307C902.326 337.077 906.637 335.962 912.732 335.962H924.661V347.111H913.177C912.137 347.111 911.617 347.631 911.617 348.672V355.919C911.617 356.959 912.137 357.48 913.177 357.48H922.877V329.272C922.877 328.232 922.357 327.712 921.316 327.712L900.022 327.823V314.444L921.539 314.333C927.709 314.258 932.131 315.485 934.807 318.012C937.483 320.465 938.821 324.627 938.821 330.499V369.186H924.327L922.877 357.48H923.435C923.435 361.345 922.543 364.467 920.759 366.845C918.975 369.149 916.113 370.301 912.174 370.301Z" fill="black"/>
<path d="M892.217 314.555V326.819H878.838L879.953 325.704V354.246C879.953 355.287 880.474 355.807 881.514 355.807H892.217V369.186H883.075C876.386 369.186 871.554 367.885 868.581 365.284C865.608 362.608 864.121 358.334 864.121 352.462V325.704L865.236 326.819H858.547V314.555H865.236L864.121 315.67V300.619H879.953V315.67L878.838 314.555H892.217Z" fill="black"/>
<path d="M834.203 313.44H837.102C842.156 313.44 845.835 314.518 848.139 316.674C850.444 318.755 851.596 322.323 851.596 327.377V369.186H835.764V327.823C835.764 326.782 835.244 326.262 834.203 326.262H824.949C823.909 326.262 823.388 326.782 823.388 327.823L823.611 369.186H807.78L807.557 314.555H821.939L823.388 326.262H822.831C822.831 322.323 823.723 319.201 825.507 316.897C827.365 314.593 830.264 313.44 834.203 313.44Z" fill="black"/>
<path d="M796.406 369.855H774.33C767.641 369.855 762.81 368.554 759.837 365.953C756.864 363.277 755.377 359.003 755.377 353.131V329.049C755.377 323.177 756.641 319.126 759.168 316.897C761.695 314.593 766.006 313.44 772.101 313.44H781.354C787.524 313.44 791.835 314.593 794.288 316.897C796.815 319.126 798.078 323.177 798.078 329.049V348.895H769.425V337.746H782.469V327.823C782.469 326.782 781.949 326.262 780.908 326.262H772.77C771.729 326.262 771.209 326.782 771.209 327.823V354.915C771.209 355.956 771.729 356.476 772.77 356.476H796.406V369.855Z" fill="black"/>
<path d="M711.527 369.186H695.026V298.389L725.129 297.832C731.819 297.683 736.91 299.244 740.403 302.514C743.971 305.785 745.755 310.356 745.755 316.228V324.813C745.755 329.198 744.529 333.1 742.076 336.519C739.623 339.864 736.018 342.094 731.261 343.209V339.975C734.011 340.496 736.167 341.499 737.728 342.986C739.363 344.398 740.701 346.591 741.741 349.564L748.654 369.186H732.153L724.46 345.661C724.237 345.067 724.014 344.621 723.791 344.324C723.643 344.026 723.234 343.878 722.565 343.878H709.297L711.527 341.313V369.186ZM711.527 309.538V331.837L709.297 329.607H727.47C728.511 329.607 729.031 329.086 729.031 328.046V313.775C729.031 312.734 728.511 312.214 727.47 312.214H709.297L711.527 309.538Z" fill="black"/>
<path d="M664.931 330.276V343.097H634.048V330.276H664.931Z" fill="black"/>
<path d="M610.766 314.555V326.819H597.387L598.502 325.704V354.246C598.502 355.287 599.022 355.807 600.063 355.807H610.766V369.186H601.624C594.934 369.186 590.103 367.885 587.13 365.284C584.157 362.608 582.67 358.334 582.67 352.462V325.704L583.785 326.819H577.096V314.555H583.785L582.67 315.67V300.619H598.502V315.67L597.387 314.555H610.766Z" fill="black"/>
<path d="M566.298 369.186H549.797V298.389H566.298V369.186Z" fill="black"/>
<path d="M500.39 293.929H516.333V369.186H501.951L500.39 357.48H500.836C500.836 361.345 499.944 364.466 498.16 366.845C496.376 369.149 493.514 370.301 489.575 370.301H486.788C481.808 370.301 478.129 369.223 475.75 367.068C473.446 364.912 472.294 361.345 472.294 356.365V329.272C472.294 323.698 473.558 319.795 476.085 317.566C478.612 315.336 482.923 314.221 489.018 314.221H500.39V293.929ZM500.39 355.919V325.259L502.062 327.042H489.464C488.423 327.042 487.903 327.563 487.903 328.603V355.919C487.903 356.959 488.423 357.48 489.464 357.48H498.829C499.87 357.48 500.39 356.959 500.39 355.919Z" fill="black"/>
<path d="M445.942 313.44H448.841C453.895 313.44 457.575 314.518 459.879 316.674C462.183 318.755 463.335 322.323 463.335 327.377V369.186H447.503V327.823C447.503 326.782 446.983 326.262 445.942 326.262H436.689C435.648 326.262 435.128 326.782 435.128 327.823L435.351 369.186H419.519L419.296 314.555H433.678L435.128 326.262H434.57C434.57 322.323 435.462 319.201 437.246 316.897C439.104 314.593 442.003 313.44 445.942 313.44Z" fill="black"/>
<path d="M407.487 369.186H391.655V314.555H407.487V369.186ZM407.487 307.643H391.655V294.264H407.487V307.643Z" fill="black"/>
<path d="M382.043 327.265V341.425H356.846L359.076 339.195V369.186H342.575V298.389H359.076V329.495L356.846 327.265H382.043ZM351.941 312.772V298.389H384.273V312.772H351.941Z" fill="black"/>
<path d="M314.834 314.555V326.819H301.456L302.57 325.704V354.246C302.57 355.287 303.091 355.807 304.131 355.807H314.834V369.186H305.692C299.003 369.186 294.171 367.885 291.198 365.284C288.225 362.608 286.739 358.334 286.739 352.462V325.704L287.854 326.819H281.164V314.555H287.854L286.739 315.67V300.619H302.57V315.67L301.456 314.555H314.834Z" fill="black"/>
<path d="M270.366 369.186H253.865V298.389H270.366V369.186Z" fill="black"/>
<path d="M204.458 293.929H220.401V369.186H206.019L204.458 357.48H204.904C204.904 361.345 204.012 364.466 202.228 366.845C200.444 369.149 197.583 370.301 193.643 370.301H190.856C185.876 370.301 182.197 369.223 179.819 367.068C177.514 364.912 176.362 361.345 176.362 356.365V329.272C176.362 323.698 177.626 319.795 180.153 317.566C182.68 315.336 186.991 314.221 193.086 314.221H204.458V293.929ZM204.458 355.919V325.259L206.131 327.042H193.532C192.491 327.042 191.971 327.563 191.971 328.603V355.919C191.971 356.959 192.491 357.48 193.532 357.48H202.897C203.938 357.48 204.458 356.959 204.458 355.919Z" fill="black"/>
<path d="M166.327 369.855H144.251C137.562 369.855 132.731 368.554 129.758 365.953C126.784 363.277 125.298 359.003 125.298 353.131V329.049C125.298 323.177 126.561 319.126 129.089 316.897C131.616 314.593 135.927 313.44 142.022 313.44H151.275C157.445 313.44 161.756 314.593 164.208 316.897C166.736 319.126 167.999 323.177 167.999 329.049V348.895H139.346V337.746H152.39V327.823C152.39 326.782 151.87 326.262 150.829 326.262H142.691C141.65 326.262 141.13 326.782 141.13 327.823V354.915C141.13 355.956 141.65 356.476 142.691 356.476H166.327V369.855Z" fill="black"/>
<path d="M115.263 369.855H93.1879C86.4984 369.855 81.6671 368.554 78.694 365.953C75.7209 363.277 74.2344 359.003 74.2344 353.131V329.049C74.2344 323.177 75.4979 319.126 78.0251 316.897C80.5522 314.593 84.8632 313.44 90.9581 313.44H100.212C106.381 313.44 110.692 314.593 113.145 316.897C115.672 319.126 116.936 323.177 116.936 329.049V348.895H88.2823V337.746H101.327V327.823C101.327 326.782 100.807 326.262 99.7659 326.262H91.627C90.5865 326.262 90.0662 326.782 90.0662 327.823V354.915C90.0662 355.956 90.5865 356.476 91.627 356.476H115.263V369.855Z" fill="black"/>
<path d="M49.5261 344.101V298.389H63.6855V369.186H51.9789L20.8728 323.252H23.2141V369.186H9.05469V298.389H20.6498L51.7559 344.101H49.5261Z" fill="black"/>
<path d="M150.446 152.563C150.507 152.638 150.629 152.595 150.629 152.498V4.01583C150.629 2.91126 151.525 2.01582 152.629 2.01582H201.329C202.433 2.01582 203.329 2.91125 203.329 4.01582V251.566C203.329 252.67 202.433 253.566 201.329 253.566H160.793C160.144 253.566 159.598 253.339 159.223 252.809C151.078 241.3 52.7066 102.297 52.6995 102.64C52.6925 102.974 52.6985 233.992 52.6994 251.614C52.6994 252.718 51.804 253.566 50.6994 253.566H2C0.89543 253.566 0 252.67 0 251.566V4.01582C0 2.91125 0.895431 2.01582 2 2.01582H42.1249C42.7715 2.01582 43.3783 2.32848 43.7536 2.85508L150.446 152.563V152.563Z" fill="#014AB8"/>
<path d="M318.524 251.566C318.524 252.67 317.629 253.566 316.524 253.566H259.111C258.006 253.566 257.111 252.67 257.111 251.566V4.01582C257.111 2.91125 258.006 2.01582 259.111 2.01582H316.524C317.629 2.01582 318.524 2.91125 318.524 4.01582V251.566Z" fill="#014AB8"/>
<path d="M521.153 104.617C522.258 104.617 523.153 105.512 523.153 106.617V152.926C523.153 154.031 522.258 154.926 521.153 154.926H439.437C438.331 154.926 437.435 155.825 437.437 156.931L437.668 251.561C437.67 252.667 436.774 253.566 435.668 253.566H378.259C377.154 253.566 376.259 252.67 376.259 251.566V4.01582C376.259 2.91125 377.154 2.01582 378.259 2.01582H437.672H521.153C522.258 2.01582 523.153 2.91125 523.153 4.01582V51.3162C523.153 52.4207 522.258 53.3162 521.153 53.3162H439.672C438.568 53.3162 437.672 54.2116 437.672 55.3162V102.617C437.672 103.721 438.568 104.617 439.672 104.617H521.153Z" fill="#014AB8"/>
<path d="M624.474 251.566C624.474 252.67 623.578 253.566 622.474 253.566H565.06C563.955 253.566 563.06 252.67 563.06 251.566V4.01582C563.06 2.91125 563.955 2.01582 565.06 2.01582H622.474C623.578 2.01582 624.474 2.91125 624.474 4.01582V251.566Z" fill="#014AB8"/>
<path d="M778.851 115.312C779.955 115.312 780.851 116.208 780.851 117.312V158.869C780.851 159.973 779.955 160.869 778.851 160.869H667.908C666.803 160.869 665.908 159.973 665.908 158.869V117.312C665.908 116.208 666.803 115.312 667.908 115.312H778.851Z" fill="#014AB8"/>
<path d="M885.817 251.565C885.817 252.669 884.921 253.565 883.817 253.565H826.403C825.299 253.565 824.403 252.669 824.403 251.565V3.9801C824.403 2.88931 825.277 1.9997 826.368 1.98042L936.441 0.0344463C961.339 -0.493735 980.289 5.05224 993.291 16.6724C1006.57 28.2925 1013.21 44.5343 1013.21 65.3978V95.9007C1013.21 111.482 1008.64 125.347 999.515 137.495C990.386 149.38 973.94 156.178 975.096 156.178C976.252 156.178 980.979 158.119 983.332 160.472C985.685 162.825 994.397 173.28 998.27 183.844L1023 250.873C1023.49 252.178 1022.52 253.565 1021.13 253.565H964.013C963.158 253.565 962.398 253.022 962.121 252.213L933.952 169.979C933.159 167.961 932.367 166.425 931.574 165.371C931.5 165.273 931.436 165.169 931.369 165.067C930.75 164.116 929.259 163.641 926.898 163.641H887.817C886.712 163.641 885.817 164.536 885.817 165.641V251.565ZM887.817 51.1367C886.712 51.1367 885.817 52.0321 885.817 53.1367V110.935C885.817 112.039 886.712 112.935 887.817 112.935H945.156C949.028 112.935 950.965 111.086 950.965 107.389V56.6827C950.965 52.9853 949.028 51.1367 945.156 51.1367H887.817Z" fill="#FFB341"/>
</svg>
